<?xml version="1.0" encoding="utf-8"?>
<!-- Generator: Adobe Illustrator 27.0.0, SVG Export Plug-In . SVG Version: 6.00 Build 0)  -->
<svg version="1.1" id="Ebene_1" xmlns="http://www.w3.org/2000/svg" xmlns:xlink="http://www.w3.org/1999/xlink" x="0px" y="0px"
	 viewBox="0 0 595.28 841.89" style="enable-background:new 0 0 595.28 841.89;" xml:space="preserve">
<style type="text/css">
	.st0{fill:#F0F0F0;}
</style>
<path class="st0" d="M298.83,417.18c-17.39-0.07-31.29-14.12-31.27-31.6c0.02-17.31,14.21-31.44,31.55-31.42
	c17.6,0.03,31.57,14.22,31.45,31.94C330.43,403.5,316.4,417.25,298.83,417.18z M301.91,409.26c0-6.76,0-12.86,0-19.34
	c6.66,1.12,7.44-2.76,7.06-7.91c-2.29-0.29-4.65-0.58-6.93-0.87c-0.59-8.23-0.56-8.26,7.37-9.55c0-1.87,0-3.79,0-6.85
	c-4.13,0.58-8.34,0.25-11.63,1.83c-5.97,2.88-4.08,9.46-4.84,14.7c-2.48,0.24-4.57,0.44-6.75,0.64c0,2.64,0,5.01,0,7.53
	c2.46,0.27,4.53,0.5,7.16,0.79c0,6.44,0,12.67,0,19.03C296.36,409.26,298.78,409.26,301.91,409.26z"/>
</svg>
