<?xml version="1.0" encoding="utf-8"?>
<!-- Generator: Adobe Illustrator 27.0.0, SVG Export Plug-In . SVG Version: 6.00 Build 0)  -->
<svg version="1.1" id="Ebene_1" xmlns="http://www.w3.org/2000/svg" xmlns:xlink="http://www.w3.org/1999/xlink" x="0px" y="0px"
	 viewBox="0 0 300 300" style="enable-background:new 0 0 300 300;" xml:space="preserve">
<style type="text/css">
	.st0{fill:#FFFFFF;}
</style>
<g>
	<g>
		<path class="st0" d="M16.66,119.36v65.26c-9.42-7.7-15.43-19.45-15.43-32.63C1.23,138.81,7.25,127.06,16.66,119.36z"/>
		<path class="st0" d="M54.04,192.46c-3.55,1-7.3,1.53-11.17,1.53c-5.33,0-10.43-1.01-15.12-2.85v-32.98l-1.1-37.32L54.04,192.46z"
			/>
		<path class="st0" d="M76.88,127.75l-18.4,48.72l-24.72-65.46c2.93-0.66,5.98-1.01,9.11-1.01C56.92,110,69.34,117.01,76.88,127.75z
			"/>
		<path class="st0" d="M84.51,151.99c0,15.14-7.95,28.41-19.86,35.8l18.19-47.61C83.93,143.92,84.51,147.89,84.51,151.99z"/>
	</g>
	<g>
		<g>
			<path class="st0" d="M115.89,134.09h3.26v24.81h-3.4v-18.58l0.17,1.09l-6.11,14.04h-2.42l-6.11-13.7l0.17-1.43v18.58h-3.4v-24.81
				h3.26l7.29,16.38L115.89,134.09z"/>
			<path class="st0" d="M125.72,157.8c-1.08-0.9-1.62-2.28-1.62-4.12c0-1.75,0.5-3.07,1.48-3.94c0.99-0.88,2.49-1.31,4.49-1.31h5.03
				l0.24,2.8h-5.26c-0.91,0-1.59,0.2-2.04,0.61c-0.45,0.4-0.67,1.02-0.67,1.85c0,0.9,0.3,1.56,0.9,2c0.6,0.43,1.5,0.65,2.72,0.65
				c1.33,0,2.32-0.14,2.98-0.43s0.98-0.73,0.98-1.33l0.36,2.49c-0.31,0.48-0.69,0.87-1.13,1.18c-0.45,0.31-0.97,0.54-1.56,0.69
				c-0.59,0.15-1.26,0.23-2,0.23C128.43,159.16,126.8,158.71,125.72,157.8z M134.95,147.68c0-1.16-0.31-2.06-0.93-2.7
				s-1.5-0.96-2.64-0.96c-0.71,0-1.4,0.11-2.07,0.32c-0.68,0.22-1.28,0.52-1.8,0.9l-2.54-1.74c0.67-0.81,1.56-1.44,2.65-1.89
				c1.1-0.45,2.32-0.67,3.66-0.67c1.47,0,2.72,0.26,3.77,0.78c1.05,0.52,1.84,1.27,2.39,2.25s0.82,2.17,0.82,3.56v11.38h-3.31
				V147.68z"/>
			<path class="st0" d="M141.67,141.19h3.55l5.44,15.39l-1.93,3.77L141.67,141.19z M157.36,141.19l-7.54,21.86
				c-0.27,0.81-0.63,1.45-1.08,1.92c-0.44,0.47-0.99,0.81-1.64,1.02c-0.65,0.2-1.44,0.31-2.39,0.31h-0.7v-3.34h0.7
				c0.65,0,1.16-0.13,1.54-0.39c0.38-0.26,0.71-0.71,1-1.35l6.55-20.02H157.36z"/>
			<path class="st0" d="M161.2,157.8c-1.08-0.9-1.62-2.28-1.62-4.12c0-1.75,0.5-3.07,1.48-3.94c0.99-0.88,2.49-1.31,4.49-1.31h5.03
				l0.24,2.8h-5.26c-0.91,0-1.59,0.2-2.04,0.61c-0.45,0.4-0.67,1.02-0.67,1.85c0,0.9,0.3,1.56,0.9,2c0.6,0.43,1.5,0.65,2.72,0.65
				c1.33,0,2.32-0.14,2.98-0.43c0.65-0.28,0.98-0.73,0.98-1.33l0.36,2.49c-0.31,0.48-0.69,0.87-1.13,1.18
				c-0.45,0.31-0.97,0.54-1.56,0.69c-0.59,0.15-1.26,0.23-2,0.23C163.91,159.16,162.28,158.71,161.2,157.8z M170.43,147.68
				c0-1.16-0.31-2.06-0.93-2.7s-1.5-0.96-2.64-0.96c-0.71,0-1.4,0.11-2.07,0.32c-0.68,0.22-1.28,0.52-1.8,0.9l-2.54-1.74
				c0.67-0.81,1.56-1.44,2.65-1.89c1.1-0.45,2.32-0.67,3.66-0.67c1.47,0,2.72,0.26,3.77,0.78s1.84,1.27,2.39,2.25
				c0.55,0.98,0.82,2.17,0.82,3.56v11.38h-3.31V147.68z"/>
			<path class="st0" d="M205.71,145.54v4.33c0,1.84-0.36,3.47-1.08,4.87c-0.72,1.41-1.73,2.49-3.05,3.26
				c-1.31,0.77-2.83,1.15-4.56,1.15c-1.75,0-3.29-0.36-4.62-1.08c-1.33-0.72-2.35-1.74-3.08-3.06c-0.73-1.32-1.09-2.85-1.09-4.59
				v-7.32c0-1.84,0.36-3.46,1.08-4.86s1.73-2.48,3.05-3.25c1.31-0.77,2.83-1.15,4.56-1.15c1.42,0,2.73,0.3,3.93,0.91
				c1.2,0.61,2.2,1.47,3.01,2.59s1.35,2.41,1.64,3.87h-3.77c-0.21-0.83-0.55-1.54-1.04-2.14s-1.06-1.05-1.72-1.37
				c-0.66-0.31-1.34-0.47-2.05-0.47c-1.02,0-1.92,0.24-2.7,0.73s-1.37,1.17-1.79,2.06c-0.42,0.88-0.63,1.91-0.63,3.08v7.32
				c0,1.07,0.22,2.01,0.65,2.81s1.04,1.42,1.83,1.87c0.79,0.44,1.7,0.67,2.74,0.67c1.02,0,1.92-0.23,2.7-0.69
				c0.77-0.46,1.37-1.13,1.79-2c0.42-0.88,0.63-1.92,0.63-3.12v-1.08h-5.03v-3.33H205.71z"/>
			<path class="st0" d="M211.77,157.8c-1.08-0.9-1.62-2.28-1.62-4.12c0-1.75,0.5-3.07,1.48-3.94c0.99-0.88,2.49-1.31,4.49-1.31h5.03
				l0.24,2.8h-5.26c-0.91,0-1.59,0.2-2.04,0.61c-0.45,0.4-0.67,1.02-0.67,1.85c0,0.9,0.3,1.56,0.9,2c0.6,0.43,1.5,0.65,2.72,0.65
				c1.33,0,2.32-0.14,2.98-0.43c0.65-0.28,0.98-0.73,0.98-1.33l0.36,2.49c-0.31,0.48-0.69,0.87-1.13,1.18
				c-0.45,0.31-0.97,0.54-1.56,0.69c-0.59,0.15-1.26,0.23-2,0.23C214.49,159.16,212.85,158.71,211.77,157.8z M221,147.68
				c0-1.16-0.31-2.06-0.93-2.7s-1.5-0.96-2.64-0.96c-0.71,0-1.4,0.11-2.07,0.32c-0.68,0.22-1.28,0.52-1.8,0.9l-2.54-1.74
				c0.67-0.81,1.56-1.44,2.65-1.89c1.1-0.45,2.32-0.67,3.66-0.67c1.47,0,2.72,0.26,3.77,0.78s1.84,1.27,2.39,2.25
				c0.55,0.98,0.82,2.17,0.82,3.56v11.38H221V147.68z"/>
			<path class="st0" d="M232.92,158.85c-0.92-0.21-1.77-0.51-2.57-0.92c-0.8-0.41-1.53-0.92-2.2-1.54l2.06-2.54
				c0.96,0.73,1.91,1.27,2.85,1.64c0.94,0.36,1.88,0.55,2.8,0.55c1.38,0,2.41-0.21,3.1-0.64s1.03-1.07,1.03-1.92
				c0-0.57-0.19-1-0.56-1.28c-0.38-0.28-0.84-0.48-1.4-0.57c-0.56-0.1-1.34-0.19-2.36-0.27c-0.09,0-0.19,0-0.29-0.01
				s-0.2-0.01-0.29-0.03c-0.04,0-0.09,0-0.14-0.01c-0.04-0.01-0.09-0.01-0.14-0.01c-1.15-0.09-2.12-0.26-2.92-0.5
				c-0.8-0.24-1.46-0.7-1.99-1.37c-0.53-0.67-0.79-1.63-0.79-2.88c0-1.25,0.26-2.29,0.77-3.12s1.27-1.45,2.29-1.87
				c1.01-0.42,2.28-0.62,3.81-0.62c0.92,0,1.8,0.08,2.64,0.26c0.84,0.17,1.63,0.42,2.4,0.76c0.76,0.34,1.5,0.76,2.2,1.27l-2.1,2.54
				c-0.89-0.57-1.76-1-2.62-1.28c-0.86-0.28-1.7-0.43-2.52-0.43c-1.18,0-2.07,0.2-2.66,0.61s-0.89,1.01-0.89,1.82
				c0,0.48,0.17,0.84,0.5,1.08c0.33,0.24,0.76,0.4,1.27,0.48c0.51,0.08,1.24,0.15,2.18,0.2c0.07,0.01,0.14,0.02,0.21,0.02
				c0.07,0,0.15,0.01,0.23,0.02c0.03,0,0.07,0,0.1,0s0.07,0.01,0.1,0.02c1.24,0.08,2.29,0.24,3.17,0.49
				c0.87,0.25,1.6,0.75,2.19,1.48c0.59,0.74,0.89,1.81,0.89,3.21c0,1.27-0.27,2.33-0.82,3.17s-1.37,1.46-2.47,1.89
				c-1.1,0.42-2.48,0.63-4.14,0.63C234.82,159.16,233.84,159.06,232.92,158.85z"/>
			<path class="st0" d="M246.36,141.19h7.99v3.14h-7.99V141.19z M249.19,157.8c-0.67-0.79-1-1.96-1-3.51v-18.26h3.48v18.29
				c0,0.43,0.09,0.77,0.26,1c0.17,0.23,0.42,0.35,0.75,0.35h1.67v3.31h-2.01C250.9,158.99,249.85,158.59,249.19,157.8z"/>
			<path class="st0" d="M262.18,158.24c-1.16-0.62-2.05-1.52-2.65-2.71s-0.91-2.62-0.91-4.31v-2c0-1.75,0.29-3.25,0.88-4.49
				s1.44-2.18,2.55-2.83c1.11-0.65,2.46-0.97,4.03-0.97c1.48,0,2.74,0.37,3.79,1.11c1.05,0.74,1.85,1.81,2.4,3.21
				c0.55,1.4,0.83,3.08,0.83,5.03v1.16h-11.94v-2.8h8.63c-0.1-1.44-0.47-2.57-1.12-3.37c-0.64-0.8-1.5-1.2-2.58-1.2
				c-1.32,0-2.34,0.43-3.06,1.3c-0.72,0.86-1.08,2.09-1.08,3.67v2.25c0,1.47,0.39,2.59,1.16,3.38c0.77,0.78,1.87,1.18,3.29,1.18
				c0.71,0,1.41-0.14,2.1-0.43c0.69-0.28,1.31-0.68,1.86-1.19l2.29,2.29c-0.88,0.84-1.86,1.49-2.95,1.95
				c-1.09,0.46-2.19,0.69-3.29,0.69C264.74,159.16,263.34,158.85,262.18,158.24z"/>
			<path class="st0" d="M281.34,154.33c0,0.43,0.09,0.77,0.28,1c0.19,0.23,0.45,0.35,0.79,0.35h1.64v3.31h-2.05
				c-1.32,0-2.34-0.41-3.06-1.23c-0.72-0.82-1.08-1.97-1.08-3.46v-20.2h3.48V154.33z"/>
		</g>
	</g>
</g>
</svg>
