<?xml version="1.0" encoding="UTF-8"?>
<svg id="Ebene_1" data-name="Ebene 1" xmlns="http://www.w3.org/2000/svg" viewBox="0 0 296.07 83.98">
  <defs>
    <style>
      .cls-1 {
        fill: #fff;
      }
    </style>
  </defs>
  <g>
    <path class="cls-1" d="M15.43,9.36V74.62C6.02,66.93,0,55.17,0,41.99S6.02,17.06,15.43,9.36Z"/>
    <path class="cls-1" d="M52.81,82.46c-3.55,1-7.3,1.53-11.17,1.53-5.33,0-10.43-1.01-15.12-2.85V48.15l-1.1-37.32,27.38,71.62Z"/>
    <path class="cls-1" d="M75.65,17.75l-18.4,48.72L32.53,1.01c2.93-.66,5.98-1.01,9.11-1.01,14.05,0,26.47,7.01,34.01,17.75Z"/>
    <path class="cls-1" d="M83.28,41.99c0,15.14-7.95,28.41-19.86,35.8l18.19-47.61c1.09,3.75,1.67,7.71,1.67,11.81Z"/>
  </g>
  <g>
    <path class="cls-1" d="M114.66,24.09h3.26v24.81h-3.4V30.32l.17,1.09-6.11,14.04h-2.42l-6.11-13.7,.17-1.43v18.58h-3.4V24.09h3.26l7.29,16.38,7.29-16.38Z"/>
    <path class="cls-1" d="M124.49,47.8c-1.08-.9-1.62-2.28-1.62-4.12s.5-3.07,1.48-3.94c.99-.88,2.49-1.31,4.49-1.31h5.03l.24,2.8h-5.26c-.91,0-1.59,.2-2.04,.61-.45,.4-.67,1.02-.67,1.85,0,.9,.3,1.56,.9,2,.6,.43,1.5,.65,2.72,.65,1.33,0,2.32-.14,2.98-.43s.98-.73,.98-1.33l.36,2.49c-.31,.48-.69,.87-1.13,1.18-.45,.31-.97,.54-1.56,.69-.59,.15-1.26,.23-2,.23-2.18,0-3.82-.45-4.9-1.36Zm9.23-10.13c0-1.16-.31-2.06-.93-2.7s-1.5-.96-2.64-.96c-.71,0-1.4,.11-2.07,.32-.68,.22-1.28,.52-1.8,.9l-2.54-1.74c.67-.81,1.56-1.44,2.65-1.89,1.1-.45,2.32-.67,3.66-.67,1.47,0,2.72,.26,3.77,.78,1.05,.52,1.84,1.27,2.39,2.25s.82,2.17,.82,3.56v11.38h-3.31v-11.23Z"/>
    <path class="cls-1" d="M139.93,31.19h3.55l5.44,15.39-1.93,3.77-7.06-19.16Zm15.68,0l-7.54,21.86c-.27,.81-.63,1.45-1.08,1.92-.44,.47-.99,.81-1.64,1.02-.65,.2-1.44,.31-2.39,.31h-.7v-3.34h.7c.65,0,1.16-.13,1.54-.39,.38-.26,.71-.71,1-1.35l6.55-20.02h3.55Z"/>
    <path class="cls-1" d="M159.45,47.8c-1.08-.9-1.62-2.28-1.62-4.12s.5-3.07,1.48-3.94c.99-.88,2.49-1.31,4.49-1.31h5.03l.24,2.8h-5.26c-.91,0-1.59,.2-2.04,.61-.45,.4-.67,1.02-.67,1.85,0,.9,.3,1.56,.9,2,.6,.43,1.5,.65,2.72,.65,1.33,0,2.32-.14,2.98-.43,.65-.28,.98-.73,.98-1.33l.36,2.49c-.31,.48-.69,.87-1.13,1.18-.45,.31-.97,.54-1.56,.69-.59,.15-1.26,.23-2,.23-2.18,0-3.82-.45-4.9-1.36Zm9.23-10.13c0-1.16-.31-2.06-.93-2.7s-1.5-.96-2.64-.96c-.71,0-1.4,.11-2.07,.32-.68,.22-1.28,.52-1.8,.9l-2.54-1.74c.67-.81,1.56-1.44,2.65-1.89,1.1-.45,2.32-.67,3.66-.67,1.47,0,2.72,.26,3.77,.78s1.84,1.27,2.39,2.25c.55,.98,.82,2.17,.82,3.56v11.38h-3.31v-11.23Z"/>
    <path class="cls-1" d="M203.97,35.54v4.33c0,1.84-.36,3.47-1.08,4.87-.72,1.41-1.73,2.49-3.05,3.26-1.31,.77-2.83,1.15-4.56,1.15s-3.29-.36-4.62-1.08c-1.33-.72-2.35-1.74-3.08-3.06-.73-1.32-1.09-2.85-1.09-4.59v-7.32c0-1.84,.36-3.46,1.08-4.86s1.73-2.48,3.05-3.25c1.31-.77,2.83-1.15,4.56-1.15,1.42,0,2.73,.3,3.93,.91,1.2,.61,2.2,1.47,3.01,2.59s1.35,2.41,1.64,3.87h-3.77c-.21-.83-.55-1.54-1.04-2.14s-1.06-1.05-1.72-1.37c-.66-.31-1.34-.47-2.05-.47-1.02,0-1.92,.24-2.7,.73s-1.37,1.17-1.79,2.06c-.42,.88-.63,1.91-.63,3.08v7.32c0,1.07,.22,2.01,.65,2.81s1.04,1.42,1.83,1.87c.79,.44,1.7,.67,2.74,.67s1.92-.23,2.7-.69c.77-.46,1.37-1.13,1.79-2,.42-.88,.63-1.92,.63-3.12v-1.08h-5.03v-3.33h8.6Z"/>
    <path class="cls-1" d="M210.03,47.8c-1.08-.9-1.62-2.28-1.62-4.12s.5-3.07,1.48-3.94c.99-.88,2.49-1.31,4.49-1.31h5.03l.24,2.8h-5.26c-.91,0-1.59,.2-2.04,.61-.45,.4-.67,1.02-.67,1.85,0,.9,.3,1.56,.9,2,.6,.43,1.5,.65,2.72,.65,1.33,0,2.32-.14,2.98-.43,.65-.28,.98-.73,.98-1.33l.36,2.49c-.31,.48-.69,.87-1.13,1.18-.45,.31-.97,.54-1.56,.69-.59,.15-1.26,.23-2,.23-2.18,0-3.82-.45-4.9-1.36Zm9.23-10.13c0-1.16-.31-2.06-.93-2.7s-1.5-.96-2.64-.96c-.71,0-1.4,.11-2.07,.32-.68,.22-1.28,.52-1.8,.9l-2.54-1.74c.67-.81,1.56-1.44,2.65-1.89,1.1-.45,2.32-.67,3.66-.67,1.47,0,2.72,.26,3.77,.78s1.84,1.27,2.39,2.25c.55,.98,.82,2.17,.82,3.56v11.38h-3.31v-11.23Z"/>
    <path class="cls-1" d="M231.18,48.85c-.92-.21-1.77-.51-2.57-.92-.8-.41-1.53-.92-2.2-1.54l2.06-2.54c.96,.73,1.91,1.27,2.85,1.64,.94,.36,1.88,.55,2.8,.55,1.38,0,2.41-.21,3.1-.64s1.03-1.07,1.03-1.92c0-.57-.19-1-.56-1.28-.38-.28-.84-.48-1.4-.57-.56-.1-1.34-.19-2.36-.27-.09,0-.19,0-.29,0s-.2-.01-.29-.03c-.04,0-.09,0-.14,0-.04,0-.09,0-.14,0-1.15-.09-2.12-.26-2.92-.5-.8-.24-1.46-.7-1.99-1.37-.53-.67-.79-1.63-.79-2.88s.26-2.29,.77-3.12,1.27-1.45,2.29-1.87c1.01-.42,2.28-.62,3.81-.62,.92,0,1.8,.08,2.64,.26,.84,.17,1.63,.42,2.4,.76,.76,.34,1.5,.76,2.2,1.27l-2.1,2.54c-.89-.57-1.76-1-2.62-1.28-.86-.28-1.7-.43-2.52-.43-1.18,0-2.07,.2-2.66,.61s-.89,1.01-.89,1.82c0,.48,.17,.84,.5,1.08,.33,.24,.76,.4,1.27,.48,.51,.08,1.24,.15,2.18,.2,.07,.01,.14,.02,.21,.02s.15,0,.23,.02h.1s.07,0,.1,.02c1.24,.08,2.29,.24,3.17,.49,.87,.25,1.6,.75,2.19,1.48,.59,.74,.89,1.81,.89,3.21,0,1.27-.27,2.33-.82,3.17s-1.37,1.46-2.47,1.89c-1.1,.42-2.48,.63-4.14,.63-1.05,0-2.03-.1-2.94-.31Z"/>
    <path class="cls-1" d="M244.62,31.19h7.99v3.14h-7.99v-3.14Zm2.82,16.61c-.67-.79-1-1.96-1-3.51V26.04h3.48v18.29c0,.43,.09,.77,.26,1,.17,.23,.42,.35,.75,.35h1.67v3.31h-2.01c-1.43,0-2.48-.39-3.15-1.19Z"/>
    <path class="cls-1" d="M260.44,48.24c-1.16-.62-2.05-1.52-2.65-2.71s-.91-2.62-.91-4.31v-2c0-1.75,.29-3.25,.88-4.49s1.44-2.18,2.55-2.83c1.11-.65,2.46-.97,4.03-.97,1.48,0,2.74,.37,3.79,1.11,1.05,.74,1.85,1.81,2.4,3.21,.55,1.4,.83,3.08,.83,5.03v1.16h-11.94v-2.8h8.63c-.1-1.44-.47-2.57-1.12-3.37-.64-.8-1.5-1.2-2.58-1.2-1.32,0-2.34,.43-3.06,1.3-.72,.86-1.08,2.09-1.08,3.67v2.25c0,1.47,.39,2.59,1.16,3.38,.77,.78,1.87,1.18,3.29,1.18,.71,0,1.41-.14,2.1-.43,.69-.28,1.31-.68,1.86-1.19l2.29,2.29c-.88,.84-1.86,1.49-2.95,1.95-1.09,.46-2.19,.69-3.29,.69-1.64,0-3.04-.31-4.2-.92Z"/>
    <path class="cls-1" d="M279.6,44.33c0,.43,.09,.77,.28,1,.19,.23,.45,.35,.79,.35h1.64v3.31h-2.05c-1.32,0-2.34-.41-3.06-1.23-.72-.82-1.08-1.97-1.08-3.46V24.09h3.48v20.24Z"/>
  </g>
</svg>