<?xml version="1.0" encoding="utf-8"?>
<!-- Generator: Adobe Illustrator 27.0.0, SVG Export Plug-In . SVG Version: 6.00 Build 0)  -->
<svg version="1.1" id="Ebene_1" xmlns="http://www.w3.org/2000/svg" xmlns:xlink="http://www.w3.org/1999/xlink" x="0px" y="0px"
	 viewBox="0 0 595.28 841.89" style="enable-background:new 0 0 595.28 841.89;" xml:space="preserve">
<style type="text/css">
	.st0{fill:#FFCC03;}
	.st1{fill:#010202;}
</style>
<g>
	<rect x="39.51" y="335.16" class="st0" width="529.59" height="124.54"/>
	<g>
		<g>
			<g>
				<path class="st0" d="M570.26,458.17c-0.15,1.93,0.08,1.24,0.09,1.53C570.57,456.46,570.19,458.25,570.26,458.17z"/>
				<path class="st0" d="M570.97,426.28l0.19,0.56c-0.12-1.57-0.25-3.13-0.39-4.7L570.97,426.28z"/>
				<path class="st0" d="M571.9,396.46c-0.71,1.41-0.7,4.11-0.63,7.12c0.08,3.01,0.21,6.34-0.07,8.99l-0.27,0.88l0.79,2.4
					C571.86,409.4,571.41,401.01,571.9,396.46z"/>
				<path class="st0" d="M575.68,380.57c-0.66,0.98-0.34-3.44-0.39,3.71c0.08-0.36,0.13-0.46,0.18-0.67
					C575.51,382.96,575.56,382.07,575.68,380.57z"/>
				<path class="st0" d="M575.48,383.6C575.35,386.74,576.09,381.55,575.48,383.6L575.48,383.6z"/>
				<path class="st0" d="M575.87,369.1l0.37,4.14c0.42-0.86,0.71-4.55,0.92-3.18C577.08,365.82,576.62,366.69,575.87,369.1z"/>
				<path class="st0" d="M574.79,365.18l0.17,2.14C575.14,366.95,575.22,366.38,574.79,365.18z"/>
				<path class="st0" d="M575.29,371.87l-0.33-4.55c-0.3,0.6-0.85,0.66,0.1,2.09C574.58,369.04,575.03,369.94,575.29,371.87z"/>
				<path class="st0" d="M574.93,374.44c-0.46,2.32-0.79,5.32-1.18,1.17C573.67,383.52,574.77,382.36,574.93,374.44z"/>
				<path class="st0" d="M570.54,394.94l-0.43,3.1l0.4,2.68C570.31,399.39,570.96,394.75,570.54,394.94z"/>
				<path class="st0" d="M578.07,340.73c-0.41-0.32-1.19,2.85-1.73,3.4l0.09,1.3c0.03,0.42,0.06,0.96,0.09,1.13l0.17,1.53
					C577.04,347.4,577.44,341.17,578.07,340.73z"/>
				<path class="st0" d="M576.34,344.13c-0.2-2.57-0.33-5.09-0.6-7.41C575.6,343.39,575.85,344.62,576.34,344.13z"/>
				<path class="st0" d="M572.88,364.44c0.38,2.5,0.74,5.01,1.08,7.51c-0.33-2.99-0.68-5.97-1.06-8.96L572.88,364.44z"/>
				<path class="st0" d="M560.74,325.32c1.65-0.32,3.37-0.63,5.18-0.93l-4.62,0.69l-2.19,0.35c-0.43,0.06-0.52,0.12-0.74,0.18
					l-0.58,0.18c0.35-0.08,0.64-0.15,1.05-0.23L560.74,325.32z"/>
				<path class="st0" d="M548.25,325.01c1.92-0.84-2.63-1.69-0.6-2.17c-3.15,0-5.83,0.69-8.25,1.33
					C541.96,323.86,544.7,324.1,548.25,325.01z"/>
				<path class="st0" d="M535.33,325.1c1.28-0.19,2.61-0.55,4.06-0.93C538.03,324.34,536.69,324.6,535.33,325.1z"/>
				<path class="st0" d="M571.67,327.97c-0.4-0.28-0.97-1-5.38-1.4c0.9,0.45,1.72,0.89,2.46,1.33
					C569.65,327.92,570.65,327.94,571.67,327.97z"/>
				<path class="st0" d="M568.84,327.94l-0.08-0.04c-3.21-0.1-5.43-0.17-6.38-0.2C563.19,327.73,565.14,327.8,568.84,327.94z"/>
				<path class="st0" d="M572.41,327.99c-0.27-0.01-0.47-0.01-0.73-0.02C571.87,328.1,572,328.14,572.41,327.99z"/>
				<path class="st0" d="M574.2,352.46c-0.54-2.69-1.14-8.28-2.22-2.87C572.72,351.52,573.36,348.42,574.2,352.46z"/>
				<path class="st0" d="M574.26,329.91l-0.09,7.34c0.31-0.3,0.73-1.95,1.12-0.09L574.26,329.91z"/>
				<path class="st0" d="M570.73,329.95l1.89-0.17l0.96-0.09l0.48-0.04l0.12-0.01c0.04-0.01,0.02,0.05,0.03,0.08l0.03,0.2
					c-0.01-0.11,0.03-0.25-0.02-0.32l-0.32-0.02l-0.65-0.04l-1.3-0.07L570.73,329.95z"/>
				<path class="st0" d="M543.65,326.71c-2.1,0.54-4.39,0.52-6.98,0.54c2.78,0.36,5.65,0.59,8.38,0.66
					C545.43,327.49,546.63,326.76,543.65,326.71z"/>
				<path class="st0" d="M553.97,327.43c-0.14,0.02-0.33,0.04-0.47,0.06C553.79,327.61,554.02,327.65,553.97,327.43z"/>
				<path class="st0" d="M511.16,326.54c0.14,0.09,0.26,0.2,0.41,0.29c0.03-0.09,0.05-0.18,0.1-0.26L511.16,326.54z"/>
				<path class="st0" d="M545.51,328.18c2.09,0.32,3.34,0.02,4.52-0.36c-1.56,0.09-3.22,0.13-4.99,0.09
					C544.87,328.1,544.84,328.23,545.51,328.18z"/>
				<path class="st0" d="M528.22,325.53c1.09,0.34,2.32,0.64,3.62,0.91C530.77,325.95,528.6,325.16,528.22,325.53z"/>
				<path class="st0" d="M552.8,327.1c0.1-0.02,0.2-0.04,0.31-0.05C552.43,326.74,552.51,326.88,552.8,327.1z"/>
				<path class="st0" d="M552.8,327.1c-1.07,0.16-1.92,0.46-2.77,0.73c1.27-0.07,2.45-0.17,3.47-0.34
					C553.25,327.39,552.99,327.23,552.8,327.1z"/>
				<path class="st0" d="M503.43,336.52c0.37-1.48,5.86-2.79,10.59-1.25c4.66-1.07,1.61-5.67-2.46-8.43
					c-0.14,0.62-0.14,1.19-4.94,1.96c1.68,0.84,10.65,2,6.6,3.24c-6.36,0.68-5.21-0.56-8.3-1.37c2.63,1.83-8.09,2.6-6.7,5.35
					l5.57-0.96C503.9,335.47,501.88,336.14,503.43,336.52z"/>
				<path class="st0" d="M520.71,327.21l1.97-0.12c-2.25-0.3-3.86-0.9-6.83-2.1c-3.28,0.59-3.97,1.11-4.19,1.58l9.72,0.45
					L520.71,327.21z"/>
				<path class="st0" d="M531.55,327.32c-1.54,1.41-6.28,1.97-3.38,3.62c5.79-0.02,4.06-1.16,7.52-1.72
					c-9.35,0.15,2.69-0.74-4.07-1.73c1.84-0.2,3.49-0.22,5.05-0.24c-1.68-0.22-3.31-0.49-4.84-0.81c0.09,0.04,0.14,0.07,0.21,0.1
					l0.04,0c0,0.01-0.01,0.01-0.01,0.02c0.4,0.19,0.54,0.31,0.08,0.19c-0.03,0.02-0.14,0.02-0.19,0.02
					C531.9,326.97,531.73,327.15,531.55,327.32c-2.71-0.38-0.43-0.4,0.42-0.55c0.03-0.07,0.1-0.14,0.11-0.21
					c-0.01-0.01-0.02-0.01-0.03-0.02l-9.37,0.55C524.66,327.35,527.14,327.37,531.55,327.32z"/>
				<path class="st0" d="M569.51,344.53c0.11-0.32,0.19-0.33,0.28-0.37C569.64,343.55,569.54,343.35,569.51,344.53z"/>
				<path class="st0" d="M570.24,340.13c0.17,0.65,0.64,1.11,0.5,3.74c-0.37,2.26-0.57,0.07-0.96,0.3c0.16,0.66,0.36,1.97,0.6,2.45
					c0.12,0.24,0.25,0.31,0.39,0.05c0.14-0.21,0.28-0.91,0.44-2.19l-0.15-0.77c0.11-1.14,0.29-2.42,0.51-3.73
					c0.22-1.36,0.43-2.68,0.61-3.8c0.41-2.38,0.78-4.24,0.87-3.86c-0.51,1.26-0.95,2.34-1.39,3.57
					C571.21,337.09,570.77,338.46,570.24,340.13z"/>
				<path class="st0" d="M552.85,331.26l-7.8,0.55l3.97,1.24l-0.2-0.71C553.26,332.66,552.3,331.79,552.85,331.26z"/>
				<polygon class="st0" points="510.26,325.74 511.3,324.12 506.79,326.33 				"/>
				<polygon class="st0" points="500.13,325.67 500.5,324.2 497.83,325.02 				"/>
				<path class="st0" d="M42.64,446.47l0.14,2.29C42.73,447.68,42.69,446.98,42.64,446.47z"/>
				<path class="st0" d="M42.82,429.88l-0.26-0.41C42.69,430.24,42.8,430.56,42.82,429.88z"/>
				<path class="st0" d="M251.21,324.31c-3.34-1.57-7.07-3.98-6.66-2.06l1.03,1.86C247.9,323.74,249.69,323.92,251.21,324.31z"/>
				<path class="st0" d="M80.74,335.45c0.32,0.13,0.65,0.26,0.98,0.39c0.81-0.45,1.57-0.87,2.25-1.24
					C83,334.87,81.9,335.16,80.74,335.45z"/>
				<path class="st0" d="M78.38,340.7l-4.4-0.92C74.97,340.09,76.39,340.39,78.38,340.7z"/>
				<path class="st0" d="M116.9,454.78l2.67-0.88C115.39,454.09,117.23,454.39,116.9,454.78z"/>
				<path class="st0" d="M396.32,324.44c-2.88-0.8-5.17-1.14-7.19-1.26C392.61,324.35,395.41,326.06,396.32,324.44z"/>
				<path class="st0" d="M36.53,439.94c0.11,1.4,0.24,2,0.36,1.96C36.79,440.46,36.67,439.64,36.53,439.94z"/>
				<path class="st0" d="M380.82,323.11c0.51,0.2,1.01,0.31,1.52,0.48c2.11-0.31,4.22-0.56,6.8-0.41
					C386.57,322.32,383.64,321.77,380.82,323.11z"/>
				<path class="st0" d="M445.53,452.44c0.24,0.06,0.53,0.1,0.74,0.18C446.34,452.45,446.01,452.43,445.53,452.44z"/>
				<path class="st0" d="M541.27,461.99c-0.94,0.08-2.48,0.15-3.93,0.22C538.04,462.22,539.23,462.16,541.27,461.99z"/>
				<path class="st0" d="M459.35,323.95C461.5,323.88,459.69,323.76,459.35,323.95L459.35,323.95z"/>
				<path class="st0" d="M469.8,331.1c-0.46,0.19-0.8,0.44-0.86,0.84C469.12,331.52,469.42,331.25,469.8,331.1z"/>
				<path class="st0" d="M359.41,335.45c-0.06,0-0.11,0-0.19-0.01C359.86,335.84,359.75,335.76,359.41,335.45z"/>
				<path class="st0" d="M462.58,324.83c-0.81-0.23-1.74-0.43-2.75-0.58C460.28,324.39,461.11,324.58,462.58,324.83z"/>
				<path class="st0" d="M462.15,323.98c0.74,0.08,1.32,0.15,1.88,0.21C464.3,323.91,464.06,323.71,462.15,323.98z"/>
				<path class="st0" d="M456.35,323.99c1.23,0,2.38,0.11,3.48,0.26c-0.42-0.13-0.6-0.23-0.49-0.29
					C458.72,323.97,457.83,323.99,456.35,323.99z"/>
				<path class="st0" d="M269.45,454.68c0.14,0.05,0.31,0.08,0.46,0.15C272.08,454.13,271.12,454.25,269.45,454.68z"/>
				<path class="st0" d="M195.27,343.27c0.1-0.02,0.15-0.06,0.25-0.08c-0.1-0.02-0.23-0.05-0.32-0.07L195.27,343.27z"/>
				<path class="st0" d="M187.55,344.47c3.29-2.11,5.16-1.83,7.65-1.34l-2.55-5.05L187.55,344.47z"/>
				<path class="st0" d="M66.01,456.37l-5.42-0.47c6.54-0.88,11.28-0.7,6.19-1.34c-0.77,1.85-21.07,0.35-21.83,2.08
					c-0.38-0.03-0.36-0.06-0.5-0.09l-0.3-0.09c-0.19-0.06-0.36-0.11-0.5-0.18c0.31,0.02,0.41-0.09,0.71-0.08
					c-0.46-0.19-0.66-0.23-1-0.15c-0.11,0.05-0.08-0.05-0.13-0.06c-0.03-0.03-0.07-0.06-0.11-0.09c-0.08-0.06-0.18-0.12-0.28-0.2
					c-0.22-0.18-0.48-0.4-0.66-1.05c-0.15-1.2-0.23-2.77-0.16-5.01c0.14-3.12,0.42-5.3,0.62-3.17l-0.4-6.95
					c0.05-2.02,0.36-1.53,0.31,0.49l-0.05-10.61l0.05,0.08c-0.28-1.51-0.7-4.94-0.89-6.62c0.3-2.69,0.19,1.35,0.44,0.66l-0.41-5.87
					c0.54-2.39,0.96,2.48,0.85,6.53c2-5.49-0.45-4.87,0.92-16.71l0.15,5.55c1.22-3.58,0.89-7.9,1.85-14.17
					c-0.49,1.49-2.19,12.55-2.57,6.18c0.18-1.8,0.32-4.16-0.05-7.6c0.77-0.03,0.66-3.39,0.71-7.59l1.06,0.29
					c-0.18-4.54-0.74-4.18-1.17-6.86c0.22-5.06,1.16-6.11,1.96-7.3c0.47-8.11-1.63,5.6-1.56-4c0.64-6.74,0.34-11.48-0.27-19.54
					c0.6-4.72,0.81,0.83,1.24-0.87l-0.97-4.18c0.06-1.02,0.39-0.69,0.56-0.53c-0.16-1.76-0.52-1.84-0.86-2.16
					c-0.09-0.08-0.17-0.18-0.25-0.32c-0.08-0.12-0.17-0.21-0.24-0.38c-0.16-0.33-0.29-0.87-0.39-1.8c-0.39-0.38-0.45-1.07-0.31-1.81
					c0.07-0.37,0.18-0.77,0.31-1.14c0.07-0.19,0.14-0.38,0.22-0.56c0.31,0.06,0.65,0.16,0.97,0.23c2.92,0.67,3.68,1.36,8.06,0.44
					c1.69,0.51-0.82,0.98-0.3,1.62c9.41-1.06,8.07-0.71,15.79-2.48l6.58,1.32c-4.84-1.47,1.34-2.94,6.76-4.33
					c-1.72-0.69-3.18-1.27-4.17-1.55l8.64-1.09c1.04,0.31,0.17,0.99-1.24,1.79c0.59-0.16,1.15-0.32,1.58-0.47
					c3.09,0.7,1.49,1.85-0.73,2.91c-1.05-0.39-2.1-0.8-3.11-1.2c-2.13,1.15-4.13,2.38-3.69,3.48c0.56-0.2,1.64-0.37,2.83-0.45
					c-0.56,0.3-0.91,0.57-0.66,0.77c0.29,0.21,1.19-0.19,2.61-0.65l1.96,2.19l0.48-0.84l11.3,1.67c8.09-2.04,15.12-5.5,27.95-6.54
					c-3.18,1.82-0.68,2.98-0.86,5.15c-3.5-2.32-9.94,0.8-16.59,0.18c3.47,0.3,2.71,1.27,1.82,1.59c3.95-0.56,7.91-1.14,11.86-1.77
					c-0.27,1.75,2.52,1.37,5.62,2.17c-2.34-3.57,8.84-2.21,13.67-3.28c0.3,1.24-0.86,2.47-6.75,2.08c6.5,2.87,8.4-4.17,14.77-1.76
					c-1.44,0.02-2.21-0.18-2.78,0.44c3.36-1.07,11.57-0.12,9.64,0.98l-1.43,0.01c9.55,0.57,29.06,0.35,30.48-3.03
					c0.1,0.44-1.25,4.05-1.83,4.72c5.68-3.7,11.36-7.5,17.03-11.4c-1.5,2.94,4.26,10.06-3.66,11.64c2.27,0.44,5.08,0.98,9.88-0.01
					c-1.55-0.45-3.86-4.34-1.75-4.6c5.82,3.37,4.04,1.79,11.21,4.73c-2.32-0.67,0.26-5.39,3.93-5.23c-0.57,0.71,0.31,4.72-1.04,5.2
					l9.14-4.64c-2.28,0.84-0.4,4.01,1.64,5.38c-0.95-0.94,7.9,0.18,10.34-0.26l-3.88-1.16c10.32,0.85,10.2-6.72,20.44-6.47
					c-1.24,1.02-3.06,6.23,2.15,6.9c2.39-2.48,10.57-12.16,19.63-14.25l1.74,1.47l6.95-1.73c-4.33,3.98-16.47,12.15-23.11,15.18
					c3.86,1.19,1.08,1.73,6.86,1.67c2.04,1.4-3.15,2.04-4.86,2.09l13.47,1.08c-0.6-3.03,10.3-2.92,9.79-5.47l-14.63,3.01
					c-0.59-2.99,8.46-8.49,18-7.95c2.43,1.23-1.82,5.43-1.62,6.45c1.24-1.04,9.06-1.95,9.93-1.2l-4.05,1.61
					c5.31,1.21,8.67-4.03,15.05-1.06c2.2,0.21,6.58,4.03,6.96,2.19c-3.59-3.56-4.3-14.5-1.9-17.17c0.77,0.23,11.57,3.37,14.08,5.13
					c3.63,2.79-5.45,6.64-2.36,9.04c0.13-0.85,2.14-1.9,2.97-2.23c2.31,0.73-0.96,2.64,4.07,2.25c0.84-3.16,10.23,0.27,2.38-2.67
					c4.92-0.9,5.23,0.65,11,0.51c-1.84-2.04,5.19-6.95,10.11-7.85c-0.29,0.8,0.82,1.84,1.35,2.32c10.08,0.28,15.49,1.7,24.9,1.71
					c0.87,0.75,5.4,1.65,3.47,2.98c1.35-0.55,2.59-1.61,5.49-1.69c5.61,2.64-6.47,0.44-2.19,3.63c0.37-1.8,7.5-2.51,11.63-3.64
					c-1.27-2.74-9.54-0.51-13.68,0.63c-0.02-3.83,7.18-7.85,17.01-9.51c7.81-0.88,3.39,2.44,4.74,1.92
					c14.67,0.7,12.5-6.36,24.68-3.58c4.83,2.35,0.22,4.58,1.29,6.25c-6.36,0.87-9.77-1.49-14.08-1.42l5.31,1.12
					c-2.02,0.77-6.27,1.37-8.58,0.68c4.05,2.1,24.78,0.43,36.1,2.26c2.01-0.75,5.48-1.52,3.84-2.41l-3.58,0.31
					c-3.29-1.81,6.74-2.45,2.21-3.3c4.8-1.23,10.19-3.09,16.95-2.02l1.27,2.45c-0.14-0.71-4.42-1.5-6.32-0.76
					c2.82-1.04,10.37,3.36,13.46,0.23l-4.74-1.72c4.82-1.17,10.78-3.56,16.78-2.68c-2.73-2.37-1.38,0.24-5.64-2.58
					c3.69,3.48-15.33-0.51-9.4,3.25c-4.37-3.34-7.56-1.51-13.28-4.47c0.18,0.82,2.02,1.61-3.01,1.09c-0.23,0.24-0.76,0.53-1.1,0.7
					c-0.15-0.03-0.21-0.04-0.34-0.07c0.1,0.04,0.18,0.07,0.28,0.1c-0.22,0.12-0.24,0.14,0.1,0.04c1.2,0.39,2.17,0.84,2.56,1.3
					c-2.5,1.84-10.5,1.68-13.2,2.65c-2.99-0.44,1.25-0.95-0.38-1.87l-4.04,1.45c-0.4-1.88-7.93-3.27-0.9-4.26l-6.33-0.2
					c-3.73-1.14-8.85-1.69-12.01-0.92c-2.99-0.48-7.54,2.04-4.94,0.55l-9.93,1.07l-0.09-0.5c-9.79-0.4-20.16,3.12-31.36-0.65
					c-3.3,0.48-6.71,1.1-12.22,0.48l-1.08-1.79c-4.23,0.59-12.71-1.87-14.53,0c-4.57-4.87-20.55-1.1-27.99-1.92l-0.28,2.35
					c-5.12-0.11-10.04,0.56-16.4,1.55l0.39,2.06c-5.49,1.71-14.1-1.39-22.78-1.1c0.59-0.78,2.79-0.6,4.35-0.14
					c-5.18-2.27-10.65-1.35-16-0.32c-5.35,1.03-10.57,2.21-15.27,0.63c-2.34,0.75-4.04,0.52-5.68,0.04
					c0.22-0.01,0.41-0.05,0.58-0.11c-0.24-0.02-0.6-0.02-0.96-0.01c-1.03-0.32-2.1-0.7-3.25-1c0.98,0.46,1.92,0.84,2.74,1.01
					c-1.81,0.06-4.55,0.34-7.23,0.85l-1.14-2.07c-0.22,0.03-0.39,0.03-0.62,0.07c-2.64-0.73-2.12,1.01-0.71,2.56
					c-1.35,0.36-2.59,0.78-3.55,1.29c-2.14-3.31-7.05,1.19-9.97-2.31c-1.81,1.74-13.5,1.46-14.93,4.99
					c-0.09-0.46-0.88-0.67,0.57-0.71c-2.99-0.38-5.99-0.75-8.67,0.25l-1.27-2.5l-6.54,3.41c-3.97-1.49-5.62-2.33-1.67-4.28
					c-9.52,3.02-7.73,1.2-15.83,4.11l0.4-1.57c-2.89,0.09-7.52,2.2-9.27,0.93c-3.24-1.44-11.25-1.46-20.53-1.42
					c-9.28,0.05-19.83,0.14-28.14-0.92c1.61,2.02-0.32,1.59-2.74,1.07c-2.42-0.52-5.32-1.13-5.65,0.42
					c-0.97-0.93-3.28-1.39-0.59-2.28c-8.48,1.12-12.75-1.06-18.6,1.56c-0.97-0.85,1.82-1.34,0.95-1.84
					c-0.68,0.22-2.69,0.85-3.58,0.36c-0.86-0.49,1.24-0.77,2.59-1.21c-8.67,0.49-9.54,3.11-10.17,5.55
					c-4.39-1.08-6.58-0.83-9.75,0.74c-1.53-0.74-4.08-1.46,1.31-1.86c-3.03-0.07-18.5-0.59-18.81,1.11
					c-0.95-0.41-4.23-0.04-5.03,0.17c-3.51,0-5.42,0-7.31,0c-2.49,0.01-5.02,0.04-9.39,0.19l2.62,0.21
					c-0.57,0.48-1.2,0.74-1.98,0.88c-0.19,0.03-0.4,0.06-0.61,0.08l-0.33,0.02c-0.04,0.02-0.15-0.03-0.13,0.05l0,0.18
					c0.01,0.49-0.01,0.97-0.03,1.48c-0.07,1.01-0.15,2.13-0.23,3.39c-0.07,1.29-0.09,2.78-0.02,4.48l-0.18-0.22
					c-0.11,1.7-0.2,3.06-0.27,4.17c-0.05,1.01-0.07,1.8-0.07,2.43c0,1.27,0.08,1.93,0.15,2.58c0.15,1.31,0.24,2.6-0.29,8.69
					l0.96-0.66c1.05,0.57,0.75,3.26,0.34,6.7c-0.42,3.44-0.93,7.62-0.52,11.15l0.47-2.55c0.34,1.93-0.27,4.63-0.95,7.32
					c-0.68,2.7-1.41,5.4-1.47,7.34c-0.13,0.84-0.27-1.33-0.42-2.51c-0.75,10.14,1.09,1.31,1.47,8.87c-0.52,1.39-1.43-1.8-1.41,3.29
					c-0.18,1.27,0.34,4.96,0.76,9.2c0.43,4.24,0.73,9.03,0.32,12.5c0.35-1.53,0.71-3.05,1.03,0.46c0.16,5.38-1.21,14.55-0.08,19.41
					c-0.09,0.68-0.18,0.94-0.27,0.97c0.15,2.06,0.29,5.4,0.45,8.54c0.08,1.58,0.17,3.06,0.28,4.4c0.11,1.74,0.22,3.09,0.38,3.79
					c-0.13,0.38-0.23,0.86-0.32,1.42c-0.04,0.28-0.08,0.58-0.11,0.91c-0.01,0.3-0.18,0.79,0.25,0.7c1.21,0.15,2.74,0.34,4.65,0.32
					c0.87,0,1.77,0,2.71-0.01c0.7-0.02,1.41-0.03,2.14-0.05c1.46-0.06,2.97-0.12,4.44-0.18c5.91-0.28,11.33-0.56,11.28,0.45
					l12.65-0.01l-0.33,0.21c8.09,0.23,10.95-0.24,13.79-0.75c1.87,0.17,0.5,0.37,0.35,0.48c11.82,0.61,12.99,0.62,22.9-0.51
					l1.03,0.85c1.34-0.22,5.61,0.18,11,0.6c5.38,0.41,11.88,0.89,17.68,0.45c-0.11,0.11-0.35,0.31-1.27,0.42
					c6.52-0.42,14.33,0.55,21.1,1.28c6.77,0.72,12.51,1.13,14.9-1.21c2.87-0.32,5.74-0.65,8.61-1.01c-5.57-0.31-5.15-0.82-3.92-1.4
					c1.23-0.57,3.29-1.22,1-1.64c4.38-0.32,11.32,1.61,5.94,1.83l-0.84-0.27c-1.98,2.64,13.84,1.18,13.54,3.12
					c10.95,0.21,21.77,0.83,32.41,1.52c10.64,0.68,21.11,1.4,31.37,1.61l-2.36-2.79l7.16,0.22c1.88,0.66,2.52,2.21-2.59,2.04
					c2.69,1.62,8.56-1.24,8.71-1.86c10,1.21-3.91,3.25-0.84,3.34l4.16-0.17l-0.94-0.34c3.38-1.12,3.67-2.36,9.81-2.19
					c3.88,0.58,1.99,1.75,3.52,1.87c-0.01,0.2,0.51,0.3,2.34,0.09l9.02,0.24l-3.61-2.24c4-1.11,8.48,0.11,4.32-2.43
					c6.11,3.92,33.64,1.29,37.39,2.46c5.6-1.63,11.13-1.62,17.97-1.48c-1.7-0.43-2.72-2.84,3.18-2.56
					c-2.16,4.94,10.81,2.08,15.59,5.48c-4.26-2.23,16.79-0.79,10.09-3.9c4.93,0.33,0.3,1.76,4.04,2.81
					c5.86-0.99,12.32-0.78,19.13-0.48c6.81,0.31,13.96,0.68,21.21,0.24c0.23-0.54-2.2-1.34,0.91-2.2c2.55,0.86,5.1,1.7,7.65,2.5
					c2.86-0.35,2.64-3.06,7.87-1.39c-0.74-0.41-1.84-1.04,0.08-1.24c14.2,0.95,28.71,0.01,43.27-0.55
					c7.28-0.3,14.58-0.52,21.85-0.59c7.28-0.07,14.54,0.03,21.75,0.17c-3.91-0.26-1.3-0.45,1.68-0.6c-1.94-0.02,0.04-0.57-0.34-0.87
					c4.02,0.17,8.05,0.27,12.07,0.29c1.1-0.39,4.34-0.52,7.46-0.67c3.12-0.14,6.12-0.29,6.75-0.51l-3.82,0.22
					c2.54-0.37,0.76-0.55-1.56-0.89c-2.32-0.32-5.19-0.81-4.81-1.24c-2.85,0.3-6.6-0.05-10.81-0.54c-4.21-0.44-8.87-1.04-13.54-0.28
					c-2.06-0.36,1.76-0.4,0.66-0.77c-2.37,0.51-5.23,0.6-10.53,0.12l0.6-0.15c-14.89-0.3-21.27-1.25-37.99-2.53l1.24,1.18
					c-3.59-0.25-4.35-0.64-6.03-0.99c-4.12,1.67,10.09,0.4,6.34,2.2c-2.38-1.19-8.72-1.4-14.86-1.61
					c-6.14-0.21-12.09-0.44-13.7-2.04c-5.53-0.18,1.62,1.59-3.91,1.43l-1.47-0.89l-1.4,1.07c-3.62-0.26-5.45-1.4-5.59-2.16
					c0.88,0.11,2.5-0.13,3.44-0.17c-4.7-1.19-13.25-0.05-14.87-0.42l5.31,0.71c-15.09,0.49-33.51-1.22-48.09,0.66l1.11,0.8
					c-11.13,1.34-8.92-0.98-21.14-0.43l0.44-0.19c-2.45,0.79-5.71,1.18-9.06,1.06c3.09-0.94-5.81-1.94-1.76-2.97
					c-12.07,1.53-5.97,1.23-13.94,4.31l-1.84-1.41c-2.72,1.25-2.94,1.92-9.05,2.28c5.01-1.2-3.9-2.17,1.71-3.75
					c-12.81-3.2-19.02,3.07-24.9-1.54c-5.88,3.96,11.08,2.24,7.79,3.08c2.76,1.3-4.86,2.95-8.87,2.55
					c-4.09-0.08-6.96-5.12-17.25-5.02c1.02,0.02,1.09-0.28,2.12-0.27c-3.85-1.01-7.55,1.39-12.27-0.23c-2.65,2.4-6.13-0.09-6.9,2.95
					l9.44-0.75c-5.35,0.83-10.37,4.39-19.19,2.72c0.69-0.61,3.31-1.42,5.11-1.88c-2.58-0.87-4.96,0.62-7.64-0.26
					c0.76-3,11.47-0.76,17.21-3.11c-2.77-1.26-10.85,2.29-7.97-1.01c-4.14,4.19-10.14-0.38-17.11,2.85l0.46-1.77
					c-1.1,0.29-3.39,1.17-5.42,1.16l3.67-2.34c-5.64,2.03-10.88-1.41-16.29-0.21c11.33-0.37,2.54,1.97,7.34,3.11
					c-13.98,2.52-8.04-4.26-23.69-2.87c2.12-0.32,7.95,0.69,4.64,1.54c-2.98-0.25-6.91-0.72-8.74-1.46
					c-10.37,0.73,1.59,1.53-2.82,2.64c-3.53-1.74-5.09,0.93-9.64,1.61l-0.03-1.49c-11.81-0.52-3.13,3.13-13.77,2.29l4.5-2.08
					l-5.55,0.69l1.14-1.62c-6.03,1.42-7.91,1.15-13.82,0.99c1.37,0.85-0.77,2.35-6.01,2.51c-3.57-0.62,2-1.22-5.42-0.81
					c1.67-0.78,3.51-1.83,6.74-0.82c0.33-0.41,1.65-0.84,1.99-1.26c-3.84-0.67-9.66,0.26-12.35,0.37c1.03,0,2.27,0,2.9,0.14
					c-3.58,0.7-7.17,1.35-10.75,1.96c-1.69-0.35-0.35-0.72,0.98-1.1c-2.18,0.2-3.69,0.75-6.89,0.95c0.83-0.88,0.63-1.74,5.16-2.38
					c-3.42,0.5-6.83,0.96-10.25,1.39c-0.68-0.34-5.26-0.74-3.93-1.09c-2.84-0.09-6.32,0.47-10.04,0.95
					c-3.71,0.5-7.66,0.92-11.43,0.79c-0.39,0.15-1.18,0.29-2.78,0.44c-7.08,0.04-13.35-0.5-21.74,0.5l-4.76-0.92
					c-6.57,0.36,6.44,1.17-4.5,1.73c-7.74,0.41-2.89-0.8-5.61-1.03c-3.85,0.57-10.55,1.58-17.66,0.86
					C61.97,456.33,63.81,456.46,66.01,456.37z M42.86,405.17c0.13,1.57,0.54,4.7,0.09,5.85C42.16,409.23,42.57,407.85,42.86,405.17z
					 M92.67,338.36c-1.17,0.48-2.97,0.2-5.01-0.38C89.14,337.88,90.81,337.95,92.67,338.36z M435.79,325.16
					c-0.07,0.03-0.11,0.06-0.17,0.1C432.12,324.4,433.36,324.73,435.79,325.16z M443.06,326.17c0.73-0.27,0.68-0.56,0.37-0.85
					c-0.51,0.51-2.14,0.52-4,0.34C439.95,326.21,440.89,326.59,443.06,326.17z M292.41,467.2l-1.42-0.49
					C294.19,466.17,293.29,466.66,292.41,467.2z"/>
				<path class="st0" d="M78.7,340.1c-0.44-0.25-0.57-0.51-0.67-0.78C77.41,339.54,77.4,339.81,78.7,340.1z"/>
				<path class="st0" d="M116.41,454.94l0.25,0c0.14-0.05,0.21-0.11,0.25-0.16L116.41,454.94z"/>
				<path class="st0" d="M330.41,344.28c-1.5-0.33-2.33-0.74-2.89-1.16C327.44,343.67,328.12,344.13,330.41,344.28z"/>
				<path class="st0" d="M481.6,323.62l-4.66,0.37c2.25-0.04,3.06,0.4,4.2,0.73C481.03,324.28,480.14,323.61,481.6,323.62z"/>
				<path class="st0" d="M522.03,335.31c0.68-0.21,1.44-0.02,2.12-0.23l-0.19-0.78C521.06,334.33,519.03,334.97,522.03,335.31z"/>
				<path class="st0" d="M485.91,329.96c0.37,1.58,3.29,1.07,6.55,0.82c-0.2,0-0.38,0.01-0.58-0.01
					C492.85,328.61,489.37,329.28,485.91,329.96z"/>
				<path class="st0" d="M493.22,330.73c1.01-0.06,2.03-0.09,3.02,0C496.62,329.88,495.01,330.53,493.22,330.73z"/>
				<path class="st0" d="M452.28,325.19c1.55,0.46,0.97-2.14,1.85-1.43C455.86,321.64,443.81,326.16,452.28,325.19z"/>
				<polygon class="st0" points="488.55,335.15 487.38,333.21 485.55,334.77 				"/>
				<path class="st0" d="M462.79,333.64l5.21,0.58c-0.08-0.34,0.58-0.54,1.4-0.69C466.19,333.46,462.66,333.04,462.79,333.64z"/>
				<path class="st0" d="M469.4,333.53c1.67,0.04,3.27,0.01,4.2-0.32C472.69,333.24,470.74,333.29,469.4,333.53z"/>
				<polygon class="st0" points="481.42,335.74 479.88,335.33 476.2,335.18 				"/>
				<path class="st0" d="M406.74,333.07l-5.69,0.63c-0.58,0.77,0.97,1.24,3.09,0.94C405.5,334.11,407.61,333.82,406.74,333.07z"/>
				<path class="st0" d="M423.95,339.1c-1.54-0.45-1.64-0.93-2.51-1.65l-0.17,2.72L423.95,339.1z"/>
				<path class="st0" d="M407.35,339.83c-0.57,0.77-8.26,2.26-1.05,2.04C406.88,341.1,412.58,340.43,407.35,339.83z"/>
				<polygon class="st0" points="321.61,336.38 323.06,336.34 322.85,331.63 				"/>
				<path class="st0" d="M246.04,346.85c6.74,1.16,1.6-2.71,7.69-1.3c1.58-1.03-4.98-1.14-3.36-2.03
					C246.3,344.57,244.17,343.92,246.04,346.85z"/>
				<path class="st0" d="M250.37,343.51c0.65-0.17,1.34-0.37,2.08-0.65C251.27,343.12,250.72,343.33,250.37,343.51z"/>
				<path class="st0" d="M557.15,461.63c1.45-0.04,2.89-0.09,4.34-0.16c-0.93,0-1.87-0.01-2.8-0.04L557.15,461.63z"/>
				<path class="st0" d="M565.48,460.62l1.02,0.28c0.87-0.16,1.74-0.31,2.6-0.45C568.12,460.52,566.22,460.66,565.48,460.62z"/>
				<path class="st0" d="M45.23,393.13l-0.25-0.33c-0.3,0.67-0.35,1.69-0.45,3.72L45.23,393.13z"/>
				<polygon class="st0" points="43.44,451.93 43.47,450.92 42.69,452.81 				"/>
				<path class="st0" d="M81.11,454.42c-2.01,0.01-4.38,0.24-6.41,0.25C79.09,454.43,81.65,455.44,81.11,454.42z"/>
			</g>
		</g>
	</g>
</g>
<g>
	<path class="st1" d="M79.43,408.32h15.3V413H73.57v-33.7h5.85V408.32z"/>
	<path class="st1" d="M97.62,400.25c0-2.45,0.49-4.66,1.46-6.63c0.97-1.97,2.34-3.48,4.1-4.54c1.76-1.06,3.78-1.59,6.06-1.59
		c3.38,0,6.12,1.09,8.23,3.26c2.11,2.18,3.24,5.06,3.41,8.66l0.02,1.32c0,2.47-0.47,4.68-1.42,6.62s-2.31,3.45-4.07,4.51
		c-1.77,1.06-3.81,1.6-6.12,1.6c-3.53,0-6.36-1.18-8.48-3.53c-2.12-2.35-3.18-5.49-3.18-9.41V400.25z M103.24,400.73
		c0,2.58,0.53,4.59,1.6,6.05c1.06,1.46,2.55,2.19,4.44,2.19c1.9,0,3.37-0.74,4.43-2.22c1.06-1.48,1.59-3.65,1.59-6.5
		c0-2.53-0.54-4.54-1.63-6.02c-1.09-1.48-2.56-2.22-4.43-2.22c-1.84,0-3.29,0.73-4.37,2.19
		C103.78,395.65,103.24,397.83,103.24,400.73z"/>
	<path class="st1" d="M124.6,400.25c0-2.45,0.49-4.66,1.46-6.63c0.97-1.97,2.34-3.48,4.1-4.54c1.76-1.06,3.78-1.59,6.06-1.59
		c3.38,0,6.12,1.09,8.23,3.26c2.11,2.18,3.24,5.06,3.41,8.66l0.02,1.32c0,2.47-0.47,4.68-1.42,6.62s-2.31,3.45-4.07,4.51
		c-1.77,1.06-3.81,1.6-6.12,1.6c-3.53,0-6.36-1.18-8.48-3.53c-2.12-2.35-3.18-5.49-3.18-9.41V400.25z M130.22,400.73
		c0,2.58,0.53,4.59,1.6,6.05c1.06,1.46,2.55,2.19,4.44,2.19c1.9,0,3.37-0.74,4.43-2.22c1.06-1.48,1.59-3.65,1.59-6.5
		c0-2.53-0.54-4.54-1.63-6.02c-1.09-1.48-2.56-2.22-4.43-2.22c-1.84,0-3.29,0.73-4.37,2.19
		C130.76,395.65,130.22,397.83,130.22,400.73z"/>
	<path class="st1" d="M160.77,402.26l-2.5,2.57V413h-5.62v-35.55h5.62v20.5l1.76-2.2l6.92-7.8h6.76l-9.3,10.44l10.3,14.6h-6.5
		L160.77,402.26z"/>
	<path class="st1" d="M177.39,381.45c0-0.86,0.27-1.58,0.82-2.15s1.33-0.86,2.35-0.86c1.02,0,1.81,0.29,2.36,0.86
		c0.56,0.57,0.83,1.29,0.83,2.15c0,0.85-0.28,1.55-0.83,2.12c-0.56,0.56-1.34,0.84-2.36,0.84c-1.02,0-1.8-0.28-2.35-0.84
		C177.66,383.01,177.39,382.3,177.39,381.45z M183.36,413h-5.62v-25.04h5.62V413z"/>
	<path class="st1" d="M194.7,387.96l0.16,2.89c1.85-2.24,4.28-3.36,7.29-3.36c5.21,0,7.87,2.99,7.96,8.96V413h-5.62v-16.22
		c0-1.59-0.34-2.77-1.03-3.53c-0.69-0.76-1.81-1.15-3.37-1.15c-2.27,0-3.96,1.03-5.07,3.08V413h-5.62v-25.04H194.7z"/>
	<path class="st1" d="M214.86,400.29c0-3.89,0.91-6.99,2.74-9.31c1.83-2.32,4.25-3.48,7.28-3.48c2.85,0,5.1,1,6.73,2.99l0.25-2.52
		h5.07v24.28c0,3.29-1.02,5.88-3.07,7.78c-2.04,1.9-4.8,2.85-8.27,2.85c-1.84,0-3.63-0.38-5.38-1.15c-1.75-0.76-3.08-1.76-3.99-3
		l2.66-3.38c1.73,2.05,3.86,3.08,6.39,3.08c1.87,0,3.34-0.51,4.42-1.52c1.08-1.01,1.62-2.5,1.62-4.46v-1.69
		c-1.62,1.81-3.78,2.71-6.48,2.71c-2.93,0-5.33-1.16-7.19-3.49C215.79,407.64,214.86,404.41,214.86,400.29z M220.46,400.78
		c0,2.52,0.51,4.49,1.54,5.94c1.03,1.44,2.45,2.16,4.27,2.16c2.27,0,3.95-0.97,5.05-2.92v-11.02c-1.06-1.9-2.73-2.85-5-2.85
		c-1.85,0-3.29,0.73-4.32,2.2C220.97,395.76,220.46,397.92,220.46,400.78z"/>
	<path class="st1" d="M256.49,413v-20.88h-3.82v-4.17h3.82v-2.29c0-2.78,0.77-4.92,2.31-6.43c1.54-1.51,3.7-2.27,6.48-2.27
		c0.99,0,2.04,0.14,3.15,0.42l-0.14,4.4c-0.62-0.12-1.33-0.19-2.15-0.19c-2.68,0-4.03,1.38-4.03,4.14v2.22h5.09v4.17h-5.09V413
		H256.49z"/>
	<path class="st1" d="M270.26,400.25c0-2.45,0.49-4.66,1.46-6.63c0.97-1.97,2.34-3.48,4.1-4.54c1.76-1.06,3.78-1.59,6.06-1.59
		c3.38,0,6.12,1.09,8.23,3.26c2.11,2.18,3.24,5.06,3.41,8.66l0.02,1.32c0,2.47-0.47,4.68-1.42,6.62c-0.95,1.94-2.31,3.45-4.07,4.51
		c-1.77,1.06-3.81,1.6-6.12,1.6c-3.53,0-6.36-1.18-8.48-3.53c-2.12-2.35-3.18-5.49-3.18-9.41V400.25z M275.89,400.73
		c0,2.58,0.53,4.59,1.6,6.05s2.54,2.19,4.44,2.19s3.38-0.74,4.43-2.22c1.06-1.48,1.59-3.65,1.59-6.5c0-2.53-0.54-4.54-1.63-6.02
		c-1.09-1.48-2.56-2.22-4.43-2.22c-1.84,0-3.29,0.73-4.37,2.19S275.89,397.83,275.89,400.73z"/>
	<path class="st1" d="M311.41,393.09c-0.74-0.12-1.5-0.19-2.29-0.19c-2.58,0-4.31,0.99-5.21,2.96V413h-5.62v-25.04h5.37l0.14,2.8
		c1.36-2.18,3.24-3.26,5.65-3.26c0.8,0,1.47,0.11,1.99,0.32L311.41,393.09z"/>
	<path class="st1" d="M326.78,381.45c0-0.86,0.27-1.58,0.82-2.15c0.55-0.57,1.33-0.86,2.35-0.86s1.81,0.29,2.36,0.86
		c0.56,0.57,0.83,1.29,0.83,2.15c0,0.85-0.28,1.55-0.83,2.12c-0.55,0.56-1.34,0.84-2.36,0.84s-1.8-0.28-2.35-0.84
		C327.05,383.01,326.78,382.3,326.78,381.45z M332.75,413h-5.62v-25.04h5.62V413z"/>
	<path class="st1" d="M344.09,387.96l0.16,2.89c1.85-2.24,4.28-3.36,7.29-3.36c5.21,0,7.87,2.99,7.96,8.96V413h-5.62v-16.22
		c0-1.59-0.34-2.77-1.03-3.53c-0.69-0.76-1.81-1.15-3.37-1.15c-2.27,0-3.96,1.03-5.07,3.08V413h-5.62v-25.04H344.09z"/>
	<path class="st1" d="M372.28,381.87v6.09h4.42v4.17h-4.42v13.98c0,0.96,0.19,1.65,0.57,2.07s1.05,0.64,2.03,0.64
		c0.65,0,1.3-0.08,1.97-0.23v4.35c-1.28,0.35-2.51,0.53-3.7,0.53c-4.32,0-6.48-2.38-6.48-7.15v-14.19h-4.12v-4.17h4.12v-6.09H372.28
		z"/>
	<path class="st1" d="M392.02,413.46c-3.56,0-6.45-1.12-8.67-3.37c-2.21-2.25-3.32-5.23-3.32-8.97v-0.69c0-2.5,0.48-4.73,1.45-6.7
		s2.32-3.5,4.06-4.59c1.74-1.1,3.69-1.64,5.83-1.64c3.41,0,6.04,1.09,7.9,3.26c1.86,2.18,2.79,5.25,2.79,9.23v2.27H385.7
		c0.17,2.07,0.86,3.7,2.07,4.91s2.73,1.81,4.57,1.81c2.58,0,4.67-1.04,6.29-3.12l3.03,2.89c-1,1.5-2.34,2.66-4.02,3.48
		C395.98,413.05,394.1,413.46,392.02,413.46z M391.35,392.01c-1.54,0-2.79,0.54-3.74,1.62c-0.95,1.08-1.55,2.58-1.82,4.51h10.71
		v-0.42c-0.12-1.88-0.62-3.31-1.5-4.27C394.12,392.49,392.91,392.01,391.35,392.01z"/>
	<path class="st1" d="M419.54,393.09c-0.74-0.12-1.5-0.19-2.29-0.19c-2.58,0-4.31,0.99-5.21,2.96V413h-5.62v-25.04h5.37l0.14,2.8
		c1.36-2.18,3.24-3.26,5.65-3.26c0.8,0,1.47,0.11,1.99,0.32L419.54,393.09z"/>
	<path class="st1" d="M428.31,387.96l0.16,2.89c1.85-2.24,4.28-3.36,7.29-3.36c5.21,0,7.87,2.99,7.96,8.96V413h-5.62v-16.22
		c0-1.59-0.34-2.77-1.03-3.53c-0.69-0.76-1.81-1.15-3.37-1.15c-2.27,0-3.96,1.03-5.07,3.08V413h-5.62v-25.04H428.31z"/>
	<path class="st1" d="M463.49,406.19c0-1-0.41-1.77-1.24-2.29c-0.83-0.52-2.2-0.99-4.11-1.39c-1.91-0.4-3.51-0.91-4.79-1.53
		c-2.81-1.36-4.21-3.32-4.21-5.9c0-2.16,0.91-3.97,2.73-5.42s4.13-2.18,6.94-2.18c2.99,0,5.41,0.74,7.25,2.22
		c1.84,1.48,2.77,3.4,2.77,5.76h-5.62c0-1.08-0.4-1.98-1.2-2.7c-0.8-0.72-1.87-1.08-3.19-1.08c-1.24,0-2.24,0.29-3.02,0.86
		c-0.78,0.57-1.17,1.33-1.17,2.29c0,0.86,0.36,1.54,1.09,2.01c0.72,0.48,2.19,0.96,4.4,1.45c2.21,0.49,3.94,1.06,5.2,1.74
		c1.26,0.67,2.19,1.48,2.8,2.42c0.61,0.94,0.91,2.08,0.91,3.43c0,2.25-0.93,4.08-2.8,5.47c-1.87,1.4-4.31,2.09-7.34,2.09
		c-2.05,0-3.88-0.37-5.49-1.11s-2.85-1.76-3.75-3.06c-0.9-1.3-1.34-2.69-1.34-4.19h5.46c0.08,1.33,0.58,2.35,1.5,3.07
		c0.93,0.72,2.15,1.08,3.68,1.08c1.48,0,2.61-0.28,3.38-0.84S463.49,407.1,463.49,406.19z"/>
	<path class="st1" d="M479.45,390.69c1.84-2.13,4.16-3.19,6.97-3.19c5.34,0,8.05,3.05,8.12,9.14V413h-5.62v-16.15
		c0-1.73-0.37-2.95-1.12-3.67c-0.75-0.72-1.85-1.08-3.3-1.08c-2.25,0-3.93,1-5.05,3.01V413h-5.62v-35.55h5.62V390.69z"/>
	<path class="st1" d="M500.24,381.45c0-0.86,0.27-1.58,0.82-2.15c0.55-0.57,1.33-0.86,2.35-0.86s1.81,0.29,2.36,0.86
		c0.56,0.57,0.83,1.29,0.83,2.15c0,0.85-0.28,1.55-0.83,2.12c-0.55,0.56-1.34,0.84-2.36,0.84s-1.8-0.28-2.35-0.84
		C500.51,383.01,500.24,382.3,500.24,381.45z M506.21,413h-5.62v-25.04h5.62V413z"/>
	<path class="st1" d="M534.26,400.73c0,3.87-0.88,6.96-2.64,9.27c-1.76,2.31-4.12,3.46-7.08,3.46c-2.75,0-4.95-0.9-6.6-2.71v11.87
		h-5.62v-34.67h5.18l0.23,2.55c1.65-2.01,3.9-3.01,6.73-3.01c3.06,0,5.45,1.14,7.19,3.41c1.74,2.28,2.6,5.44,2.6,9.48V400.73z
		 M528.66,400.25c0-2.5-0.5-4.48-1.49-5.95s-2.42-2.2-4.27-2.2c-2.3,0-3.95,0.95-4.95,2.85v11.11c1.02,1.94,2.68,2.92,5,2.92
		c1.79,0,3.19-0.72,4.2-2.16C528.15,405.36,528.66,403.18,528.66,400.25z"/>
</g>
</svg>
