<?xml version="1.0" encoding="utf-8"?>
<!-- Generator: Adobe Illustrator 27.0.0, SVG Export Plug-In . SVG Version: 6.00 Build 0)  -->
<svg version="1.1" id="Ebene_1" xmlns="http://www.w3.org/2000/svg" xmlns:xlink="http://www.w3.org/1999/xlink" x="0px" y="0px"
	 viewBox="0 0 595.28 841.89" style="enable-background:new 0 0 595.28 841.89;" xml:space="preserve">
<style type="text/css">
	.st0{fill:#F0F0F0;}
</style>
<g>
	<path class="st0" d="M328.98,420.63c-0.05,17.4-14.07,31.4-31.47,31.42c-17.34,0.02-31.51-14.12-31.53-31.43
		c-0.02-17.69,14.07-31.69,31.78-31.58C315.22,389.14,329.03,403.12,328.98,420.63z M297.47,406.59c-4.1,0.2-8.41,0.38-12.72,0.63
		c-3.91,0.23-6.27,2.36-6.37,6.25c-0.14,4.95-0.31,10,0.48,14.84c0.32,1.94,2.98,4.61,4.93,4.94c5.18,0.9,10.56,0.93,15.85,0.92
		c17.62-0.03,18.26-0.77,17.27-18.39c-0.03-0.5-0.03-1-0.07-1.49c-0.29-4.51-2.58-7-7.22-7.17
		C305.65,406.97,301.67,406.77,297.47,406.59z"/>
	<path class="st0" d="M294.07,414.92c3.29,1.93,6.09,3.56,9.5,5.56c-3.38,1.97-6.17,3.6-9.5,5.54
		C294.07,422.18,294.07,418.97,294.07,414.92z"/>
</g>
</svg>
